<?xml version="1.0" standalone="no"?>
<!DOCTYPE svg PUBLIC "-//W3C//DTD SVG 20010904//EN"
 "http://www.w3.org/TR/2001/REC-SVG-20010904/DTD/svg10.dtd">
<svg version="1.0" xmlns="http://www.w3.org/2000/svg"
 width="260.000000pt" height="260.000000pt" viewBox="0 0 260.000000 260.000000"
 preserveAspectRatio="xMidYMid meet">
<metadata>
Created by potrace 1.14, written by Peter Selinger 2001-2017
</metadata>
<g transform="translate(0.000000,260.000000) scale(0.100000,-0.100000)"
fill="#000000" stroke="none">
<path d="M744 2416 c-7 -12 -15 -52 -18 -89 -3 -38 -10 -75 -17 -83 -7 -8 -29
-14 -54 -14 -57 0 -73 -7 -89 -39 -12 -23 -15 -110 -7 -203 1 -17 43 -18 735
-18 578 0 735 3 738 13 11 30 6 173 -8 199 -15 29 -68 50 -102 41 -27 -7 -54
24 -52 61 4 69 -1 113 -14 131 -14 19 -33 20 -556 20 -536 1 -542 1 -556 -19z"/>
<path d="M679 1885 c-1 -5 -1 -12 -1 -15 0 -3 3 -50 6 -105 4 -55 8 -120 11
-145 2 -25 7 -85 10 -135 4 -49 8 -110 10 -135 2 -25 7 -90 10 -145 4 -55 8
-116 10 -135 2 -19 6 -80 10 -135 4 -55 9 -116 10 -135 2 -19 6 -84 11 -145 4
-60 8 -121 9 -135 2 -14 3 -35 4 -47 1 -18 7 -23 26 -23 20 0 25 -5 26 -27 0
-16 2 -37 4 -48 2 -11 7 -45 10 -75 9 -94 17 -140 24 -140 3 0 30 14 59 31 70
40 158 130 205 209 35 61 80 183 92 250 13 72 21 148 20 190 l0 45 -45 0 c-41
0 -46 3 -59 33 -8 17 -18 32 -22 32 -11 0 -74 -62 -87 -85 -14 -26 -21 -18
-28 38 -9 67 11 129 60 185 38 43 43 55 53 127 18 122 70 242 151 340 22 28
22 28 43 9 32 -28 92 -122 116 -179 29 -69 42 -120 48 -195 5 -54 10 -68 31
-83 61 -47 101 -172 74 -237 l-13 -31 -19 31 c-18 31 -67 79 -80 80 -3 0 -11
-15 -18 -33 -9 -29 -15 -34 -43 -34 -67 -1 -65 1 -61 -55 15 -250 76 -415 202
-546 41 -43 157 -122 178 -122 7 0 12 8 12 17 0 10 5 56 11 103 15 104 19 141
20 158 1 6 12 12 26 12 22 0 25 4 26 38 0 20 2 48 4 62 1 14 6 73 9 131 4 58
8 114 10 125 2 10 7 75 10 144 4 69 9 136 11 150 2 14 6 66 9 115 3 50 8 117
11 150 3 33 7 92 10 130 2 39 7 113 11 165 4 52 8 126 8 165 l1 70 -617 0
c-405 0 -618 -3 -619 -10z"/>
</g>
</svg>
